<svg width="120" height="32" viewBox="0 0 120 32" fill="none" xmlns="http://www.w3.org/2000/svg">
<path d="M34.6549 21.7557V13.1565L38.0266 12.5007V21.1103C38.0266 22.2096 38.1205 22.9422 38.3082 23.3089C38.529 23.7278 38.93 23.9372 39.5101 23.9372C39.9357 23.9372 40.3623 23.8065 40.7879 23.544C41.2135 23.2815 41.4951 22.9848 41.6316 22.6522V13.2096L44.9028 12.5017V22.7526C44.9028 23.7316 45.1673 24.5437 45.6953 25.191L43.2677 26.6068C42.8079 26.2761 42.4667 25.8402 42.2458 25.3C41.3766 26.1709 40.2268 26.6068 38.7964 26.6068C37.8769 26.6068 37.0588 26.4059 36.3431 26.0041C35.6275 25.6023 35.1592 25.0773 34.9374 24.431C34.7488 23.8709 34.6549 22.9791 34.6549 21.7557Z" fill="#E5E5E5"/>
<path d="M49.0823 16.4914C49.0823 15.0945 49.0141 13.9677 48.8785 13.112L51.9195 12.5623C52.056 13.0551 52.1327 13.4778 52.1498 13.8294C52.8143 12.985 53.8873 12.5623 55.3689 12.5623C56.3055 12.5623 57.1662 12.8334 57.9501 13.3745C59.5682 14.4918 60.3777 16.4222 60.3777 19.1638C60.3777 20.6138 60.246 21.7661 59.9815 22.6219C59.717 23.4776 59.245 24.2727 58.5634 25.0053C57.6089 26.0183 56.442 26.5244 55.0627 26.5244C54.0229 26.5244 53.1119 26.2903 52.328 25.8222C52.3621 26.0145 52.3792 26.3803 52.3792 26.9215V31.1102L49.0823 32V16.4914ZM52.4048 16.4478V22.9687C53.0181 23.4928 53.6485 23.7543 54.2959 23.7543C55.1471 23.7543 55.7519 23.4312 56.1102 22.7849C56.4676 22.1386 56.6467 21.0478 56.6467 19.5116C56.6467 18.2901 56.5785 17.4258 56.442 16.9188C56.1519 15.9237 55.5642 15.4262 54.6788 15.4262C53.7925 15.4262 53.0352 15.7674 52.4048 16.4478Z" fill="#E5E5E5"/>
<path d="M63.9889 26.2419V8.03529H67.6431V23.2047H74.0065L73.3676 26.2429H63.9889V26.2419Z" fill="#E5E5E5"/>
<path d="M82.3046 24.0168C83.4705 24.0168 84.5682 23.5714 85.5995 22.6816L86.9171 24.7721C85.4346 26.0088 83.7909 26.6277 81.9851 26.6277C80.1111 26.6277 78.6115 25.9994 77.4872 24.7418C76.363 23.4842 75.8009 21.7993 75.8009 19.6869C75.8009 17.3822 76.3374 15.6186 77.4105 14.397C78.4835 13.1755 79.8637 12.5633 81.551 12.5633C83.1691 12.5633 84.4298 13.0352 85.3331 13.9791C86.4915 15.2025 87.0707 17.1604 87.0707 19.8528V20.6659H79.567V20.7711C79.567 22.9336 80.4789 24.0168 82.3046 24.0168ZM79.567 18.0456V18.0977H83.5179V17.9404C83.5179 17.0325 83.3814 16.3606 83.1103 15.9237C82.787 15.4006 82.2856 15.1381 81.6059 15.1381C80.2466 15.1381 79.567 16.1076 79.567 18.0456Z" fill="#E5E5E5"/>
<path d="M92.6867 19.1155L89.058 13.4825L92.6099 12.4609C93.3587 13.7204 93.9474 14.813 94.373 15.7399C94.4924 16.0024 94.628 16.299 94.7816 16.6316C94.8328 16.5444 94.8583 16.4828 94.8583 16.4478C95.1645 15.7143 95.5228 14.9031 95.9314 14.0123C96.0679 13.7327 96.2717 13.3489 96.5447 12.8599H100.582L96.6982 19.0406L101.4 26.242H97.0556L95.6754 23.7799C95.4878 23.3961 95.173 22.7849 94.7304 21.9471C94.7133 21.9121 94.6877 21.8685 94.6536 21.8163C94.6365 21.8685 94.6024 21.9471 94.5512 22.0523C94.2782 22.6986 93.8782 23.4757 93.3502 24.3836L92.2516 26.242H87.8561L92.6867 19.1155Z" fill="#E5E5E5"/>
<path d="M102.482 9.1365C102.482 8.54325 102.691 8.03341 103.108 7.60506C103.525 7.17766 104.032 6.96349 104.628 6.96349C105.207 6.96349 105.696 7.17292 106.097 7.59179C106.497 8.01066 106.697 8.52525 106.697 9.13555C106.697 9.72879 106.493 10.2386 106.084 10.667C105.676 11.0944 105.173 11.3086 104.577 11.3086C103.998 11.3086 103.504 11.0944 103.094 10.667C102.686 10.2405 102.482 9.72974 102.482 9.1365ZM102.865 26.242V13.0693L106.289 12.5197V26.2429H102.865V26.242Z" fill="#E5E5E5"/>
<path d="M114.394 12.4609C115.842 12.4609 117.4 12.8807 119.07 13.7204L117.945 16.082C116.702 15.4357 115.629 15.1125 114.725 15.1125C113.618 15.1125 113.065 15.5494 113.065 16.4222C113.065 17.0334 113.61 17.4874 114.701 17.7849L116.285 18.2038C117.494 18.5184 118.363 19.0254 118.891 19.7239C119.368 20.3531 119.607 21.1122 119.607 22.003C119.607 23.4008 119.091 24.5276 118.061 25.3834C117.03 26.2391 115.68 26.6675 114.011 26.6675C112.41 26.6675 110.646 26.1519 108.72 25.1199L109.947 22.5498C111.565 23.5629 113.013 24.0689 114.291 24.0689C114.785 24.0689 115.198 23.9249 115.53 23.6368C115.862 23.3487 116.029 22.9858 116.029 22.5498C116.029 21.6941 115.356 21.1435 114.01 20.899L112.476 20.6109C111.436 20.4185 110.636 19.9646 110.074 19.2481C109.58 18.6369 109.333 17.8333 109.333 16.8373C109.333 15.5276 109.796 14.47 110.725 13.6673C111.655 12.8627 112.877 12.4609 114.394 12.4609Z" fill="#E5E5E5"/>
<path d="M23.8202 26.6343C26.008 26.6343 27.7816 24.8612 27.7816 22.6739C27.7816 20.4867 26.008 18.7136 23.8202 18.7136C21.6324 18.7136 19.8589 20.4867 19.8589 22.6739C19.8589 24.8612 21.6324 26.6343 23.8202 26.6343Z" fill="#E5E5E5"/>
<path d="M15.0871 19.813C17.4482 19.813 19.3622 17.8994 19.3622 15.539C19.3622 13.1785 17.4482 11.265 15.0871 11.265C12.726 11.265 10.812 13.1785 10.812 15.539C10.812 17.8994 12.726 19.813 15.0871 19.813Z" fill="#E5E5E5"/>
<path d="M24.1648 18.2465C26.508 18.2465 28.4076 16.3474 28.4076 14.0047C28.4076 11.662 26.508 9.76292 24.1648 9.76292C21.8215 9.76292 19.9219 11.662 19.9219 14.0047C19.9219 16.3474 21.8215 18.2465 24.1648 18.2465Z" fill="#E5E5E5"/>
<path d="M15.0198 28.7116C17.3254 28.7116 19.1945 26.8804 19.1945 24.6214C19.1945 22.3625 17.3254 20.5313 15.0198 20.5313C12.7143 20.5313 10.8452 22.3625 10.8452 24.6214C10.8452 26.8804 12.7143 28.7116 15.0198 28.7116Z" fill="#E5E5E5"/>
<path d="M5.86949 31.222C8.28134 31.222 10.2365 29.2796 10.2365 26.8835C10.2365 24.4875 8.28134 22.5451 5.86949 22.5451C3.45764 22.5451 1.50244 24.4875 1.50244 26.8835C1.50244 29.2796 3.45764 31.222 5.86949 31.222Z" fill="#E5E5E5"/>
<path d="M5.37727 21.9367C7.94146 21.9367 10.0202 19.8373 10.0202 17.2476C10.0202 14.6579 7.94146 12.5585 5.37727 12.5585C2.81307 12.5585 0.734375 14.6579 0.734375 17.2476C0.734375 19.8373 2.81307 21.9367 5.37727 21.9367Z" fill="#E5E5E5"/>
<path d="M24.5083 8.81903C26.9442 8.81903 28.919 6.84482 28.919 4.40951C28.919 1.97421 26.9442 0 24.5083 0C22.0724 0 20.0977 1.97421 20.0977 4.40951C20.0977 6.84482 22.0724 8.81903 24.5083 8.81903Z" fill="#E5E5E5"/>
<path d="M15.0089 10.3818C17.5585 10.3818 19.6253 8.28663 19.6253 5.70216C19.6253 3.11769 17.5585 1.02256 15.0089 1.02256C12.4594 1.02256 10.3926 3.11769 10.3926 5.70216C10.3926 8.28663 12.4594 10.3818 15.0089 10.3818Z" fill="#E5E5E5"/>
<path d="M4.88272 11.8393C7.57936 11.8393 9.76543 9.65757 9.76543 6.96633C9.76543 4.27509 7.57936 2.09341 4.88272 2.09341C2.18607 2.09341 0 4.27509 0 6.96633C0 9.65757 2.18607 11.8393 4.88272 11.8393Z" fill="#E5E5E5"/>
</svg>
